<?xml version="1.0" encoding="utf-8"?>
<!-- Generator: Adobe Illustrator 25.2.1, SVG Export Plug-In . SVG Version: 6.00 Build 0)  -->
<svg version="1.1" id="Layer_1" xmlns="http://www.w3.org/2000/svg" xmlns:xlink="http://www.w3.org/1999/xlink" x="0px" y="0px"
	 viewBox="0 0 566.93 165.76" style="enable-background:new 0 0 566.93 165.76;" xml:space="preserve">
<style type="text/css">
	.st0{fill:#FFFFFF;}
</style>
<g>
	<g>
		<path class="st0" d="M23.22,165.76H0V2.3h23.22V165.76z"/>
		<path class="st0" d="M232.89,165.76h-23.22V84.15c0-16.78-5.98-31.27-17.93-42.99c-11.73-11.96-25.98-17.93-42.76-17.93
			s-31.27,5.98-43.22,17.93c-11.73,11.73-17.7,26.21-17.7,42.99v81.62H64.83V84.15c0-23.22,8.28-42.99,24.6-59.32
			C105.75,8.28,125.75,0,148.97,0c23.22,0,42.99,8.28,59.32,24.83c16.32,16.32,24.6,36.1,24.6,59.32V165.76z"/>
		<path class="st0" d="M275.19,165.76V2.3h81.39c22.76,0,42.07,8.05,57.94,23.91c15.86,15.86,23.91,35.18,23.91,57.94
			c0,22.53-8.05,41.84-23.91,57.71c-15.86,15.86-35.18,23.91-57.94,23.91H275.19z M298.41,25.52v117.02h58.17
			c16.09,0,29.89-5.75,41.38-17.01c11.5-11.5,17.24-25.29,17.24-41.38c0-16.09-5.75-29.89-17.24-41.38
			c-11.5-11.5-25.29-17.24-41.38-17.24H298.41z"/>
		<path class="st0" d="M498.65,165.76h-23.22V2.3h23.22V165.76z"/>
		<path class="st0" d="M566.93,165.76h-23.22V2.3h23.22V165.76z"/>
	</g>
</g>
</svg>
